<svg id="Layer_1" data-name="Layer 1" xmlns="http://www.w3.org/2000/svg" viewBox="0 0 612 792"><defs><style>.cls-1,.cls-3{fill:none;}.cls-1{stroke:#00518a;}.cls-1,.cls-3,.cls-5,.cls-6{stroke-miterlimit:10;}.cls-2{fill:#231f20;}.cls-3{stroke:#016699;}.cls-4{fill:#416ab3;}.cls-5{fill:#8a288f;stroke:#8a288f;}.cls-6{fill:#8ccfb9;stroke:#8ccfb9;stroke-width:0.2px;}</style></defs><circle class="cls-1" cx="321.86" cy="379.87" r="180.85"/><circle class="cls-2" cx="321.86" cy="379.87" r="180.85"/><circle class="cls-2" cx="321.86" cy="379.87" r="180.85"/><circle class="cls-3" cx="321.86" cy="379.87" r="180.85"/><circle class="cls-4" cx="321.86" cy="379.87" r="180.85"/><polyline class="cls-5" points="321.86 379.87 190.05 256.06 195.39 250.6 212.76 235.62 221.83 229.18 230.91 223.52 240.21 218.46 253.7 212.31 263.48 208.65 269.61 207.34 321.86 380.47"/><polyline class="cls-6" points="141.4 362.78 141.96 356.99 143.17 348.5 143.92 344.11 146.34 333.85 149.8 322.37 153.06 313.41 158.76 300.25 167.44 284.57 178.08 269.17 183.96 261.8 190.05 255.04 199.8 245.52 210.24 236.62 218.13 230.88 232.76 221.77 248.43 214 257.84 210.1 269.31 206.22 280.06 203.35 290.6 201.2 300.43 199.77 305.55 199.02 321.85 199.02 141.01 199.02 141.01 199.03 141.01 368.75 141.01 378.65 141.01 379.87"/></svg>