<?xml version="1.0" encoding="utf-8"?>
<!-- Generator: Adobe Illustrator 26.0.1, SVG Export Plug-In . SVG Version: 6.00 Build 0)  -->
<svg version="1.1" id="Layer_1" xmlns="http://www.w3.org/2000/svg" xmlns:xlink="http://www.w3.org/1999/xlink" x="0px" y="0px"
	 viewBox="0 0 612 792" style="enable-background:new 0 0 612 792;" xml:space="preserve">
<style type="text/css">
	.st0{fill:none;stroke:#00518A;stroke-miterlimit:10;}
	.st1{fill:none;stroke:#016699;stroke-miterlimit:10;}
	.st2{fill:#416AB3;}
	.st3{fill:#8A288F;stroke:#8A288F;stroke-miterlimit:10;}
	.st4{fill:#8CCFB9;stroke:#8CCFB9;stroke-width:0.2;stroke-miterlimit:10;}
</style>
<g>
	<circle class="st0" cx="321.86" cy="379.87" r="180.85"/>
	<circle cx="321.86" cy="379.87" r="180.85"/>
	<circle cx="321.86" cy="379.87" r="180.85"/>
	<circle class="st1" cx="321.86" cy="379.87" r="180.85"/>
	<circle class="st2" cx="321.86" cy="379.87" r="180.85"/>
</g>
<polyline class="st3" points="321.86,379.87 190.05,256.06 195.39,250.6 212.77,235.62 221.83,229.18 230.91,223.52 240.21,218.46 
	253.7,212.3 263.48,208.65 269.61,207.34 321.86,380.47 "/>
<polyline class="st4" points="141.4,362.78 141.96,356.99 143.17,348.5 143.92,344.11 146.34,333.85 149.8,322.37 153.06,313.41 
	158.76,300.25 167.44,284.57 178.08,269.17 183.96,261.8 190.05,255.04 199.8,245.52 210.24,236.62 218.12,230.88 232.76,221.77 
	248.43,213.99 257.84,210.1 269.31,206.21 280.06,203.35 290.6,201.2 300.43,199.77 305.55,199.02 321.85,199.02 141.01,199.02 
	141.01,199.03 141.01,368.75 141.01,378.65 141.01,379.87 "/>
</svg>
